<svg width="120" height="33" viewBox="0 0 120 33" xmlns="http://www.w3.org/2000/svg">
    <g fill="none" fill-rule="evenodd">
        <path fill="#FFF" d="m20.957.04 3.716 5.375h7.415l.15.21-3.19 7.851-1 2.462-.326.225h-7.416l-8.083 5.374H27.87l4.87-3.362 1.91-4.699 4.092-10.072L36.603.04zM42.285.04l-8.733 21.497h24.283L66.568.041H42.285zm3.418 5.375h13.08l-4.366 10.748h-13.08l4.366-10.748zM69.013.04 60.28 21.538h24.283L93.297.041H69.013zm3.418 5.375h13.08l-4.366 10.748h-13.08L72.43 5.415zM95.626.04l-2.184 5.375h14.661L88.875 16.659l-1.982 4.878h26.465l2.183-5.374H98.698l19.235-11.258L119.91.04z"/>
        <path fill="red" d="m8.708 0 7.698 10.717L0 21.433h9.183l16.406-10.716L17.89 0z"/>
        <g fill="#FFF">
            <path d="M75.813 25.833c.05.077.056.18.008.297a.686.686 0 0 1-.25.3.638.638 0 0 1-.358.12c-.126 0-.216-.043-.265-.12-.048-.076-.052-.18-.003-.3a.677.677 0 0 1 .246-.297.65.65 0 0 1 .363-.123c.122 0 .21.047.26.123zm-1.29 0c.05.077.052.18.005.297a.678.678 0 0 1-.247.3.641.641 0 0 1-.362.12c-.125 0-.215-.043-.264-.12-.049-.076-.052-.18-.003-.3a.678.678 0 0 1 .246-.297.649.649 0 0 1 .363-.123c.125 0 .214.047.263.123zm1.36 3.226c-.12.297-.36.567-.644.764-.287.2-.617.32-.926.32h-2.406c-.316 0-.546-.12-.67-.32-.125-.197-.14-.467-.02-.764l.488-1.2h.856l-.489 1.2c-.058.144.019.264.168.264h2.406c.15 0 .323-.12.382-.264l.759-1.868h.855l-.76 1.868zM76.172 30.143l1.799-4.427h.855l-1.798 4.427zM79.307 30.524c-.12.297-.36.57-.645.767-.286.197-.621.32-.927.32h-.845l.334-.82h.845a.46.46 0 0 0 .383-.267l1.354-3.333h.855l-1.354 3.333zM81.487 29.06c-.028.07-.024.136.009.183.033.046.086.08.159.08h.428l-.334.82h-.428c-.305 0-.542-.12-.666-.32-.125-.197-.144-.467-.023-.764l1.358-3.342h.855l-1.358 3.342z"/>
            <path d="M83.736 30.9c.049.078.052.18.003.301a.68.68 0 0 1-.246.297.648.648 0 0 1-.363.123c-.125 0-.214-.046-.262-.123-.05-.077-.053-.18-.005-.297a.68.68 0 0 1 .247-.3.639.639 0 0 1 .362-.12c.125 0 .215.043.264.12zm.195-1.77c-.024.116.025.193.133.193h.706l-.333.82h-.706c-.25 0-.44-.08-.564-.213a1.47 1.47 0 0 1-.73.213h-.709l.333-.82h.71c.094 0 .222-.077.294-.194l.789-1.941h.866l-.79 1.941zm-1.485 1.77c.049.078.052.18.003.301a.68.68 0 0 1-.246.297.647.647 0 0 1-.363.123c-.121 0-.21-.046-.259-.123-.049-.077-.055-.18-.008-.297a.69.69 0 0 1 .25-.3.637.637 0 0 1 .36-.12c.124 0 .214.043.263.12z"/>
            <path d="M89.817 29.06c-.066.163.018.263.168.263h.688l-.333.82h-.689c-.267 0-.472-.076-.614-.233a1.602 1.602 0 0 1-.79.233h-.174c-.264 0-.47-.09-.607-.233a1.66 1.66 0 0 1-.801.233h-.17c-.268 0-.466-.076-.6-.233a1.603 1.603 0 0 1-.808.233h-.689l.334-.82h.688c.15 0 .315-.1.382-.264l.76-1.871h.855l-.76 1.871c-.058.144.018.264.171.264h.17c.153 0 .327-.12.386-.264l.76-1.871h.855l-.76 1.871c-.029.07-.024.137.009.184.033.046.085.08.158.08h.174c.15 0 .324-.12.382-.264l.76-1.871h.855l-.76 1.871z"/>
            <path d="M92.48 29.13c-.024.116.025.193.136.193h.65l-.333.82h-.65c-.25 0-.444-.08-.567-.213-.225.133-.48.213-.727.213h-.657l.334-.82h.657c.094 0 .219-.077.29-.194l1.385-3.412h.866l-1.385 3.412z"/>
            <path d="M94.516 29.06c-.12.296-.359.566-.644.763-.286.2-.617.32-.926.32h-.034l.333-.82h.034c.15 0 .324-.12.382-.264l1.358-3.342h.855l-1.358 3.342zM99.907 25.847c.05.076.056.18.007.3a.687.687 0 0 1-.25.297.648.648 0 0 1-.359.123c-.125 0-.214-.046-.263-.123-.048-.077-.052-.18-.004-.297a.679.679 0 0 1 .247-.3.64.64 0 0 1 .362-.12c.121 0 .212.043.26.12zm-1.782 4.677c-.12.297-.36.57-.645.767-.289.197-.624.32-.93.32h-.845l.334-.82h.845c.149 0 .328-.124.386-.267l1.354-3.333h.855l-1.354 3.333zM101.016 28.012a.46.46 0 0 0-.383.267l-.317.78c-.029.07-.024.137.009.184.033.046.086.08.159.08h1.157l.425-1.044c.028-.07.024-.137-.008-.187-.032-.05-.092-.08-.166-.08h-.876zm1.21-.82c.31 0 .544.123.67.32.125.196.142.47.021.767l-.912 2.245c-.12.297-.36.57-.645.767-.285.197-.62.32-.93.32h-.883l.333-.82h.883c.073 0 .159-.03.23-.08a.437.437 0 0 0 .16-.187l.155-.38h-1.158c-.306 0-.542-.12-.666-.32-.125-.198-.144-.468-.023-.765l.317-.78c.12-.297.36-.57.645-.768.286-.196.62-.32.927-.32h.876zM104.886 28.012a.46.46 0 0 0-.383.267l-.317.78c-.029.07-.025.137.008.184.033.046.086.08.16.08h1.157l.424-1.044c.029-.07.024-.137-.008-.187-.031-.05-.092-.08-.165-.08h-.876zm1.21-.82c.309 0 .544.123.669.32.125.196.143.47.022.767l-.912 2.245c-.12.297-.36.57-.646.767-.285.197-.62.32-.93.32h-.882l.333-.82h.883c.073 0 .158-.03.23-.08a.438.438 0 0 0 .16-.187l.154-.38h-1.157c-.306 0-.542-.12-.666-.32-.126-.198-.144-.468-.024-.765l.317-.78c.121-.297.361-.57.646-.768.285-.196.62-.32.926-.32h.876zM109.516 27.191c.31 0 .545.123.67.32s.143.47.022.768l-.317.78c-.12.297-.36.567-.644.764-.287.2-.62.32-.93.32h-1.558l.334-.82h1.557c.073 0 .16-.034.231-.08a.42.42 0 0 0 .158-.184l.317-.78c.029-.07.024-.137-.008-.187-.031-.05-.092-.08-.165-.08h-1.21l.334-.821h1.21z"/>
        </g>
    </g>
</svg>
