<?xml version="1.0" encoding="UTF-8"?>
<svg width="489px" height="104px" viewBox="0 0 489 104" version="1.1" xmlns="http://www.w3.org/2000/svg" xmlns:xlink="http://www.w3.org/1999/xlink">
    <title>facelift logo normal</title>
    <g id="Specifications" stroke="none" stroke-width="1" fill="none" fill-rule="evenodd">
        <g id="Logo" transform="translate(-242.000000, -220.000000)">
            <g id="facelift-logo-normal" transform="translate(236.368975, 214.228988)">
                <g id="logotype" transform="translate(133.881690, 13.626326)" fill="#ffffff">
                    <path d="M67.5111866,27.2837022 C71.1964165,27.2837022 74.7194962,27.9419756 77.9835568,29.2397147 C81.3431067,30.5766101 84.2439591,32.4918929 86.6356359,34.9542556 L86.6596295,34.7665066 L86.9695402,33.2634251 C87.3811524,31.1660677 87.8368085,28.8698277 87.8368085,28.8698277 L92.1811679,28.7799682 L100.332896,28.7799682 L97.6289905,46.2461563 C96.4560345,53.7922685 95.2809727,61.3425602 94.1880388,68.9012109 C94.0999969,69.4216042 93.9874713,69.9316898 93.8532039,70.4308363 L91.1104352,88.0829625 L81.0972093,88.0829625 L80.2801509,84.0839528 C75.2553142,88.367872 69.0400426,90.5322846 61.7432755,90.5322846 C60.8251268,90.5322846 59.8964489,90.4988485 58.9572418,90.434066 C51.1508721,89.8865497 44.8838756,86.7101192 40.3310374,80.9883648 C36.9553669,76.7524276 35.0685292,71.582369 34.7231705,65.6202926 C34.0492999,54.1266296 37.4397113,44.4468757 44.7933242,36.8526991 C50.6854802,30.7715065 58.9635593,27.2837022 67.5111866,27.2837022 Z M138.216426,27.2876861 C159.869821,27.6668579 163.547474,48.6733897 163.547474,48.6733897 L151.173811,48.6296391 C151.173811,48.6296391 149.057562,39.4753496 139.678824,38.9190922 C139.214734,38.8920085 138.845525,38.8920085 138.476316,38.8920085 C129.604983,38.8920085 122.596197,44.2149966 119.725029,53.1338662 C117.786165,59.1568637 117.534525,64.1777644 118.932982,68.9340782 C120.768715,75.184162 125.898453,79.0654641 132.315267,79.0654641 C144.837439,78.811294 148.816235,69.9861756 148.816235,69.9861756 L161.979882,69.9320082 L160.721683,72.6445446 C159.0819,76.1800087 156.942962,79.2571333 154.183175,82.0488375 C148.750231,87.5447445 139.994405,90.5322846 131.948121,90.5322846 C127.144277,90.5322846 122.495129,89.3781025 118.50602,87.1884898 C111.918008,83.5738579 107.710262,77.5925277 106.004474,69.4070012 C103.158057,55.7776517 109.013838,40.8982854 120.242747,33.2252658 C126.007772,29.2835462 132.05744,27.1793513 138.216426,27.2876861 Z M226.191217,47.4506593 C227.135985,52.6897955 226.723903,57.4123222 226.267159,60.270015 L226.198476,60.6845141 C225.935166,62.2185214 225.678781,63.1136801 225.678781,63.1136801 L182.008576,63.1136801 C181.880981,65.835785 182.208199,68.1336658 183.004635,70.186162 C184.972058,75.2539769 188.503541,77.7639697 193.648476,78.7600647 C205.393333,81.028832 210.600007,72.2033062 210.600007,72.2033062 L211.768936,72.1762723 L211.802112,72.1760891 C211.813052,72.1760289 211.826636,72.1759544 211.842777,72.1758662 L211.969573,72.1751785 C212.931783,72.1699929 217.147788,72.1479605 220.083161,72.1437109 L220.769496,72.1430463 C220.842412,72.1430156 220.914124,72.1429998 220.984543,72.1429998 L224.046808,72.1429998 C224.046808,72.1429998 224.022727,72.2309166 223.970115,72.394595 L223.917927,72.5531612 C223.017283,75.2308831 217.079785,90.1254246 196.3259,90.5322846 C192.574214,90.5322846 188.744324,89.8231648 184.945304,88.4257206 C177.197033,85.5746848 172.2332,79.4691844 170.586821,70.7684304 C167.80444,56.0682321 171.949199,43.5307451 182.574519,34.5139025 C188.219541,29.7185061 194.442854,27.4289434 201.065414,27.2896149 C215.740826,26.9818444 224.623041,38.7540644 226.191217,47.4506593 Z M319.008267,0.0372804554 C325.81672,-0.266495024 330.801107,1.37843887 330.763584,1.63261835 C330.252845,5.05267562 329.650383,8.46033389 329.093782,11.7419357 C326.806926,11.5910812 324.672249,11.3038377 322.539657,11.3348352 C318.134801,11.4030297 314.947377,13.4757291 313.725775,17.7223863 C312.635505,21.5144135 311.980927,25.6765021 311.084529,29.7723048 L311.084529,29.7723048 L333.048968,29.7723048 L333.732119,25.7982677 L336.383788,11.2087787 L336.383788,11.2087787 L337.453792,11.2080644 C337.509356,11.2080303 337.56675,11.2079956 337.625893,11.2079603 L339.339782,11.2070598 C339.421738,11.2070226 339.504796,11.2069858 339.588877,11.2069494 L346.547041,11.2069523 C346.631668,11.2070134 346.715296,11.2070779 346.797843,11.2071459 L347.509408,11.2078571 C347.584745,11.2079474 347.658758,11.2080417 347.731367,11.20814 L348.149528,11.2087787 C348.512256,11.2087787 348.8729,11.1674487 349.387807,11.2087787 C348.418447,17.3090863 347.465764,23.5314752 346.475558,29.7640388 L346.475558,29.7640388 L360.628217,29.7640388 C360.042431,33.63046 359.49,37.1190606 358.910469,40.9255533 C357.458304,40.9239001 356.115053,40.9223709 354.880713,40.9209657 L354.073955,40.9200472 C353.415103,40.9192972 352.789866,40.9185854 352.198243,40.9179119 L351.504432,40.917122 C351.391485,40.9169934 351.279884,40.9168664 351.169627,40.9167408 L350.524221,40.9160061 C350.209585,40.9156479 349.907051,40.9153035 349.616618,40.9149728 L348.781624,40.9140223 C348.69288,40.9139212 348.605482,40.9138217 348.519428,40.9137238 L348.019238,40.9131543 C347.938562,40.9130625 347.859231,40.9129722 347.781244,40.9128834 L347.115669,40.9121257 C347.04575,40.9120461 346.977175,40.911968 346.909946,40.9118915 L346.167728,40.9110465 C346.111255,40.9109822 346.056127,40.9109194 346.002343,40.9108582 L345.29643,40.9100546 C345.256092,40.9100086 345.217099,40.9099643 345.17945,40.9099214 L344.388827,40.9090213 C344.388827,40.9090213 343.529057,46.4324283 342.583444,52.6309316 L342.471846,53.3629896 C342.453196,53.4854209 342.434525,53.6080386 342.415838,53.7308063 L342.303577,54.4689186 L342.303577,54.4689186 L342.023135,56.3184265 C341.96728,56.6876527 341.911654,57.0559254 341.856414,57.4222578 L341.746493,58.1520432 C341.32746,60.937395 340.937263,63.5700308 340.646888,65.6052546 C340.271652,68.2276429 338.889532,75.1421514 343.884343,77.5227593 C347.2573,79.1304961 353.248571,77.3119763 353.838526,77.2437818 C353.192286,80.8973535 352.604416,84.3153443 351.956091,87.7209361 C351.895636,88.0391771 343.252695,90.8310184 335.829272,88.1156375 C330.538442,86.1793272 328.084814,82.1599849 327.259294,76.9090088 C326.483806,71.9824731 327.292649,67.111733 327.99309,62.2637243 C328.293081,60.1865568 328.717327,57.3949595 329.160421,54.5165738 L329.276369,53.7641344 L329.276369,53.7641344 L329.450985,52.6335092 C329.470389,52.508011 329.489786,52.3826067 329.509167,52.2573478 L329.625185,51.5079527 C330.454251,46.1557119 331.221051,41.2631747 331.236798,40.9317528 L331.236798,40.9317528 L309.283395,40.9255533 C309.283395,40.9255533 308.435835,46.8468706 307.482896,53.3109011 L307.372516,54.0588532 C307.335595,54.3087694 307.29856,54.5591824 307.261454,54.8097862 L307.149964,55.561864 C306.573259,59.447394 305.989538,63.3052402 305.556049,65.995823 C304.34487,73.515816 303.210823,81.0502745 301.918342,88.555802 L301.918342,88.555802 L288.737128,88.555802 C288.893477,87.5225521 289.045656,86.4872357 289.212427,85.4560522 C290.598717,76.8180828 291.934975,68.1739139 293.294163,59.5318115 C294.192646,53.8179393 298.462,27.0629656 298.462,27.0629656 C298.462,27.0629656 298.498497,26.8007287 298.568247,26.3408959 L298.614062,26.0418019 C298.821365,24.701088 299.232439,22.206201 299.79658,19.567156 L299.934886,18.9315346 L299.934886,18.9315346 L300.078915,18.2934802 C300.592847,16.0596522 301.209058,13.8381331 301.897496,12.2275631 C305.114104,4.70343714 310.878149,0.729557909 319.008267,0.0372804554 Z M49.3970181,1.63261835 C48.8859992,5.05267562 48.2835366,8.46033389 47.7269362,11.7419357 C45.44008,11.5910812 40.8263999,11.3038377 38.6938074,11.3348352 C34.2889512,11.4030297 31.1015281,13.4757291 29.8799258,17.7223863 C28.8986831,21.1352108 28.27035,24.6769229 27.501022,28.3369773 L27.2386798,29.561364 L18.0516466,88.0823862 L4.87043239,88.0823862 C7.0162276,74.8100713 8.54218819,65.2932131 9.44831415,59.5318115 C9.81883305,57.1755072 10.7626018,51.2409568 11.743813,45.0800896 L11.8912085,44.1546811 C11.9157989,44.0003031 11.940396,43.8458884 11.9649913,43.6914894 L12.1124758,42.7657025 C12.2106958,42.1491952 12.3086204,41.5346147 12.4057139,40.9253129 L0,40.9255533 L1.82244751,29.7640388 L14.1853772,29.7631331 C14.4536477,28.081331 14.6161506,27.0629656 14.6161506,27.0629656 C14.6161506,27.0629656 14.6526482,26.8007287 14.7223982,26.3408959 L14.7682125,26.0418019 C15.1828185,23.3603742 16.4125099,16.0622536 18.0516466,12.2275631 C21.2682547,4.70343714 27.0322999,0.729557909 35.1624177,0.0372804554 C41.9708703,-0.266495024 49.434261,1.37843887 49.3970181,1.63261835 Z M258.989092,0 C254.269411,29.4210098 249.576736,58.6806045 244.865365,88.0519481 L244.865365,88.0519481 L231.720058,88.0519481 C232.05243,85.8852605 232.351565,83.8344607 232.679782,81.7877997 C234.314636,71.5834669 235.955722,61.3770647 237.596808,51.1727319 C239.316832,40.4634595 241.036857,29.7541872 242.761036,19.0469842 C243.724914,13.0518611 245.760692,0.0993323816 245.760692,0.0993323816 C245.760692,0.0993323816 249.103527,0.061880191 252.69392,0.032969728 L253.311263,0.0281059046 C253.414365,0.0273120737 253.517525,0.0265273612 253.620671,0.0257528397 L254.238792,0.0212365855 C255.677973,0.0110240584 257.086014,0.00322949717 258.264817,0.000796512756 Z M282.539621,29.7640388 C282.29592,31.4987007 282.093524,33.1005557 281.839497,34.6962812 C280.032392,46.0420735 278.210831,57.3837793 276.397531,68.7295715 C276.11889,70.4711187 275.758725,72.809698 275.386999,75.2576903 L275.280538,75.9596726 C275.244986,76.1943783 275.20939,76.4296552 275.17381,76.6650821 L275.014011,77.7240935 C274.217598,83.0099956 273.475185,88.0519481 273.475185,88.0519481 L273.475185,88.0519481 L260.228593,88.0519481 C261.104264,82.4699736 261.930369,77.1433969 262.775061,71.8168202 C263.939869,64.4940543 265.119134,57.1733315 266.290138,49.8526087 C266.60971,47.8543763 267.052648,45.1148931 267.509169,42.3015872 L267.623519,41.597109 C267.680772,41.2444872 267.738094,40.8915809 267.795271,40.5396938 L267.909367,39.8376646 C268.762688,34.5884309 269.551187,29.7640388 269.551187,29.7640388 L269.551187,29.7640388 Z M67.7680998,38.5662997 C63.1247102,38.5662997 58.8793255,40.3509521 55.1582963,43.8721925 C49.0471323,49.6566396 46.6949028,57.1546874 47.9689394,66.7989155 C48.6280691,71.7829857 51.138237,75.373188 55.4362679,77.4733937 C57.630559,78.545439 60.2017965,79.1117646 62.8677971,79.1117646 C68.3408898,79.1138529 73.7423838,76.8130306 77.3244272,72.9616086 C81.6056113,68.3557844 83.7598914,62.479388 83.9030889,55.0064173 L83.9157239,54.2875409 C83.9262532,53.8528715 83.9430999,53.418202 83.900983,52.9877121 C83.2313241,46.0580782 80.2473409,41.7573585 74.7742481,39.8347822 C72.3799017,38.9905204 70.0213546,38.5662997 67.7680998,38.5662997 Z M201.07982,38.7436667 C196.982394,38.7436667 193.181316,40.2617237 189.775369,43.252088 C187.20496,45.5146168 185.344551,48.2346422 184.126231,51.8883766 L214.388737,51.8883766 C214.388737,51.6471511 214.384621,51.0565645 214.374331,50.8194981 C214.115026,44.7909403 210.949862,40.7608109 206.11774,39.4486274 C204.395216,38.9828127 202.699445,38.7436667 201.07982,38.7436667 Z M273.705227,2.48096567 C274.26454,2.48443438 277.030564,2.5020272 279.940616,2.52826361 L280.640738,2.5347235 C284.027817,2.5667213 287.386657,2.60975993 287.497627,2.65528487 C287.000942,5.91343971 286.500152,9.1777692 286.001415,12.4420987 C285.997823,12.4647391 285.993398,12.4901452 285.988403,12.5172718 L285.953721,12.6923166 C285.922654,12.8414568 285.890585,12.9813511 285.890585,12.9813511 L285.890585,12.9813511 L285.455472,16.1221877 C285.455472,16.1221877 276.831264,15.9193222 273.412511,15.9048318 L271.384107,15.9040168 C271.827429,13.0842619 272.233807,10.4641538 272.654552,7.84404568 C272.729594,7.37580169 272.850334,6.67641048 272.980882,5.93606601 L273.060101,5.48846649 C273.299566,4.14005406 273.547555,2.78219876 273.594758,2.52411183 L273.602769,2.48033656 L273.602769,2.48033656 Z"></path>
                </g>
                <g id="Group-3-Copy-42" fill="#FF6600" transform="translate(57.738527, 57.738527) rotate(45.000000) translate(-57.738527, -57.738527) translate(16.922201, 16.900245)">
                    <path d="M67.0226019,0 C74.9673729,0 81.4310248,6.34483585 81.628026,14.2464017 L81.6326523,14.6179095 L81.6326523,67.058655 C81.6326523,75.0076996 75.2912277,81.4748285 67.39391,81.6719356 L67.0226019,81.6765644 L14.6100504,81.6765644 C6.66527941,81.6765644 0.20162752,75.3317286 0.00462634277,67.4301628 L0,67.058655 L0,14.6179095 C0,6.66886482 6.34142464,0.20173598 14.2387423,0.00462883139 L14.6100504,0 L67.0226019,0 Z M67.0226019,11.6943276 L14.6100504,11.6943276 C13.0635097,11.6943276 11.7975898,12.8964545 11.6947815,14.4177431 L11.6880403,14.6179095 L11.6872599,29.6648253 L11.6959364,29.6735065 L11.7007373,29.8008426 C11.8121,31.7238663 13.3832222,33.2550568 15.3219245,33.3016472 L15.3289154,33.3071996 L33.7331324,33.3073767 C41.6779034,33.3073767 48.1415552,39.6522126 48.3385564,47.5537784 L48.3431828,47.9252862 L48.341758,65.7399647 C48.3149242,65.9202711 48.3010203,66.104801 48.3010203,66.2925801 C48.3010203,68.3473582 49.9658516,70.0130849 52.0195249,70.0130849 C52.1807992,70.0130849 52.3396755,70.0028125 52.4955359,69.9828861 L67.0226019,69.9822369 C68.5691426,69.9822369 69.8350625,68.7801099 69.9378708,67.2588213 L69.944612,67.058655 L69.944612,14.6179095 C69.944612,13.0705369 68.7431313,11.803936 67.2226607,11.7010724 L67.0226019,11.6943276 Z M33.7331324,45.0017043 L15.4528655,45.0007463 L15.428511,45.0049732 L15.428511,45.0049732 L15.4069252,45.0055434 C13.4265973,45.0055434 11.8078331,46.5544144 11.694733,48.5074404 L11.6872599,48.7683775 L11.6880403,67.058655 C11.6880403,68.6060276 12.889521,69.8726284 14.4099916,69.9754921 L14.6100504,69.9822369 L32.9361239,69.9851812 L32.9361239,69.9851812 C34.9897972,69.9851812 36.6546284,68.3194544 36.6546284,66.2646763 L36.6551425,47.9252862 C36.6551425,46.3779136 35.4536618,45.1113128 33.9331911,45.0084491 L33.7331324,45.0017043 Z" id="Shape"></path>
                </g>
            </g>
        </g>
    </g>
</svg>