<?xml version="1.0" standalone="no"?>
<!DOCTYPE svg PUBLIC "-//W3C//DTD SVG 20010904//EN"
 "http://www.w3.org/TR/2001/REC-SVG-20010904/DTD/svg10.dtd">
<svg version="1.0" xmlns="http://www.w3.org/2000/svg"
 width="489.000000pt" height="244.000000pt" viewBox="0 0 489.000000 244.000000"
 preserveAspectRatio="xMidYMid meet">
<style>
		path {
			fill: #987750;
		}
		@media ( prefers-color-scheme: dark ) {
			path {
				fill: #987750;
			}
		}
	</style>
<g transform="translate(0.000000,244.000000) scale(0.100000,-0.100000)"
fill="#000000" stroke="none">
<path d="M1800 2374 c-465 -73 -967 -220 -1285 -375 -376 -183 -522 -370 -457
-585 34 -111 86 -188 212 -314 124 -124 249 -223 540 -425 310 -215 375 -276
368 -347 -3 -28 -10 -36 -59 -60 -63 -31 -203 -70 -333 -93 -95 -16 -282 -20
-305 -6 -9 6 -11 18 -6 40 7 34 20 45 50 46 32 0 31 46 0 84 -51 60 -116 35
-146 -56 -36 -109 31 -207 159 -234 107 -22 331 10 531 77 171 57 279 127 295
190 19 75 -95 202 -358 398 -567 422 -626 470 -719 584 -65 79 -107 162 -107
212 1 130 184 293 475 422 134 60 535 190 740 241 292 73 413 91 615 92 219 0
248 -7 336 -86 40 -37 69 -56 79 -53 42 16 -11 129 -86 184 -23 16 -72 40
-108 51 -88 28 -297 34 -431 13z"/>
<path d="M2570 2108 c-103 -142 -332 -720 -414 -1043 -58 -230 -77 -460 -43
-522 21 -39 83 -61 118 -42 19 10 20 16 13 52 -29 140 37 464 176 871 84 245
165 436 199 466 15 14 34 45 41 70 7 25 21 62 31 83 22 42 16 64 -23 91 -38
27 -65 20 -98 -26z"/>
<path d="M2619 1333 c-72 -184 -177 -480 -201 -567 -56 -199 -41 -307 45 -314
32 -3 42 2 79 41 24 24 72 93 108 151 36 59 99 160 140 223 l75 116 5 -121 c5
-102 9 -126 26 -149 24 -32 84 -43 111 -21 9 7 74 89 145 182 70 92 128 166
128 163 0 -3 -14 -59 -32 -124 -26 -99 -32 -137 -32 -233 -1 -105 1 -119 24
-160 28 -50 88 -82 114 -61 12 10 11 19 -5 61 -34 89 -19 183 69 460 28 86 53
172 57 192 12 61 -38 128 -94 128 -32 0 -106 -75 -264 -268 -64 -79 -117 -138
-117 -132 0 6 18 84 41 173 l40 162 -30 27 c-52 46 -85 39 -152 -32 -57 -59
-191 -254 -305 -442 -32 -53 -60 -95 -62 -93 -2 1 36 112 85 245 71 196 92
245 110 253 25 11 29 39 12 84 -15 41 -59 83 -86 83 -16 0 -27 -8 -34 -27z"/>
<path d="M4708 1299 c-51 -54 -160 -212 -278 -402 -40 -65 -74 -116 -76 -114
-4 4 124 315 154 373 12 23 28 44 37 47 37 15 2 74 -58 96 -46 18 -65 -1 -122
-122 -102 -218 -162 -403 -172 -529 l-6 -77 36 -36 c48 -48 85 -48 124 0 16
19 84 131 152 248 124 215 188 313 198 304 3 -3 -7 -41 -21 -84 -53 -158 -71
-328 -42 -397 18 -42 61 -76 98 -76 37 0 45 21 24 68 -29 64 -8 187 94 561 32
117 25 152 -35 177 -50 20 -54 19 -107 -37z"/>
<path d="M1912 1256 c-22 -24 -45 -53 -51 -65 l-12 -22 -35 22 c-110 67 -156
72 -221 23 -125 -96 -273 -428 -260 -586 10 -113 73 -181 170 -182 46 -1 52 2
92 46 23 26 80 110 127 187 l85 141 7 -103 c3 -56 10 -120 16 -142 12 -53 50
-85 100 -85 53 0 66 23 43 82 -23 59 -23 227 0 334 10 45 36 142 58 215 l40
134 -26 22 c-43 38 -85 31 -133 -21z m-149 -147 l25 -41 -127 -212 c-155 -257
-174 -286 -185 -286 -17 0 3 139 34 232 17 51 50 129 73 172 44 83 119 176
142 176 8 0 25 -19 38 -41z"/>
<path d="M4021 1243 c-28 -31 -51 -60 -51 -64 0 -4 -35 11 -77 33 -68 36 -83
40 -117 34 -58 -11 -148 -107 -208 -221 -137 -262 -151 -485 -36 -555 17 -10
49 -22 70 -25 74 -13 117 30 248 249 l75 125 7 -105 c9 -131 22 -177 55 -203
32 -26 101 -29 110 -5 3 8 -2 52 -12 97 -29 135 -9 281 75 552 l31 100 -26 23
c-16 13 -39 22 -60 22 -28 0 -41 -9 -84 -57z m-125 -161 c7 -24 -16 -64 -200
-364 -49 -82 -94 -148 -98 -148 -15 0 -8 96 12 176 30 115 118 289 181 359
l53 57 23 -28 c13 -16 26 -39 29 -52z"/>
</g>
</svg>
